<svg width="150" height="32" viewBox="0 0 150 32" fill="none" xmlns="http://www.w3.org/2000/svg">
  <rect width="32" height="32" rx="16" fill="#A8C8E1"/>
  <path d="M7.5 14c2-4 6-6 10-4s6 6 4 10-6 6-10 4-6-6-4-10zm8 6c1.5-3 0-6-3-6s-6 3-4.5 6 6 3 7.5 0zm6.5-8c1.5-3 4.5-4.5 7.5-3s4.5 4.5 3 7.5-4.5 4.5-7.5 3-4.5-4.5-3-7.5zm5 3c1-2 0-4-2-4s-4 2-3 4 4 2 5 0zm6-1c1-2 3-3 5-2s3 3 2 5-3 3-5 2-3-3-2-5zm3 2c0.5-1 0-2-1-2s-2 1-1.5 2 2 1 2.5 0z" fill="white"/>
  <text x="40" y="22" font-family="system-ui, -apple-system, sans-serif" font-size="14" font-weight="600" fill="#1D1D1F">Glide Components</text>
</svg>